<svg id="abd5d829-7fb5-4b4d-9a59-9c0d48df7b87" data-name="Layer 1" xmlns="http://www.w3.org/2000/svg" viewBox="0 0 100 100">
  <defs>
    <style>
      .e58cd9f9-3610-4cde-b676-034d2325fe01 {
        fill: red;
      }
    </style>
  </defs>
  <g>
    <path class="e58cd9f9-3610-4cde-b676-034d2325fe01" d="M88.72,64.28c0,7.32.47,14.36-.14,21.31C88,91.94,82.19,96.37,75.81,96.38q-29.46,0-58.91,0A13.06,13.06,0,0,1,3.76,83.73c-.2-5.8-.09-11.61-.09-17.42,0-16.06,0-32.12,0-48.18A14.79,14.79,0,0,1,7,8.17a12.18,12.18,0,0,1,9.76-4.56q29,0,58.05,0c8.07,0,13.07,4.19,14.1,12.26.4,3.15.06,6.41.06,10a35.14,35.14,0,0,1-4.59-.08c-.46-.05-1.11-1-1.14-1.55-.13-2.5,0-5-.09-7.52C83,12.09,80.86,10,76.28,10q-30,0-60,0c-4.55,0-6.71,2.19-6.71,6.75q0,33.22,0,66.45c0,4.49,2.09,6.58,6.56,6.58h60.2c4.63,0,6.67-2,6.75-6.64.08-5.3,0-10.61,0-15.92,0-3,0-3,3.07-3Z"/>
    <path class="e58cd9f9-3610-4cde-b676-034d2325fe01" d="M46.5,38.42c-.25.84-.52,1.66-.74,2.51-2.31,8.7-4.66,17.4-6.88,26.13-.43,1.7-1.25,2.09-2.84,2s-2.73,0-3.25-2.11c-2.24-8.87-4.7-17.68-7.09-26.52a3.54,3.54,0,0,0-1.09-1.93v2.19c0,8.74,0,17.49,0,26.24,0,1.58-.43,2.15-2.05,2.11C16.84,69,18,69.63,18,64.66c-.07-10.18,0-20.36,0-30.53V31.19c3.64,0,7.19-.06,10.72.08.4,0,.93,1.11,1.1,1.77C31.54,40,33.26,46.91,35,53.84c.19.75.43,1.49.8,2.79.36-1,.58-1.46.71-2,1.86-7.2,3.73-14.39,5.53-21.61.34-1.36.83-2,2.41-2,3.06.15,6.13,0,9.41,0,0,1,.13,1.71.13,2.47,0,10.9-.05,21.79,0,32.69,0,2.12-.48,2.9-2.72,2.81-4.94-.21-4.18.46-4.2-4.29,0-8,0-16,0-24.08V38.52Z"/>
    <path class="e58cd9f9-3610-4cde-b676-034d2325fe01" d="M61.47,31.27h7.82c0,.73.14,1.36.14,2,0,11.18,0,22.36,0,33.53,0,1.79-.52,2.33-2.3,2.33-5.7,0-5.7.06-5.7-5.56V31.27Z"/>
    <path class="e58cd9f9-3610-4cde-b676-034d2325fe01" d="M96.4,49.48c-1.55,0-3,0-4.38,0-3.32.05-3.16-.56-3.17,3.27,0,2,0,4,0,6.1H82.08V49.59H74.5V43.32H82V33.89h6.76v9.28H96.4Z"/>
  </g>
</svg>
